#!OML:ASF E:/inclinewalkrobotboard/Project1/Captureday1/Session1/subject1.ASF
:FULLY-SPECIFIED
:DEGREES
351
root 0 0 0 -1.8166477052030632 -5.331210368033837 -7.2396514646086585
lowerback 10.134415745249377 2.395745811667101 5.627233159471901
upperback 0.09114322353023857 3.92142369993047 1.5097414243387572
thorax -5.502870153850923 1.8089987694178928 -2.139284806108332
lowerneck -15.069331773951015 -3.3435032721275335 -1.0531895453725535
upperneck 17.731132692023095 -4.563011798315018 1.261841497600067
head 8.146885972447436 -2.1343554405165355 0.07786156186258769
rclavicle -1.586741187350004E-16 -6.271521265053592E-17
rhumerus -19.274962895227574 -6.906984328064853 -66.99736702337187
rradius 61.78866684775332
rwrist -8.556139143519642
rhand -13.197256005091425 -10.035400265966514
rfingers 7.125019999999857
rthumb 12.929266857894337 -39.25297826237035
lclavicle -8.134030343168789E-16 -3.6851069460994794E-16
lhumerus -39.534487768321505 0.2421211403374909 83.27705222018092
lradius 38.15314505671989
lwrist 2.7467380516025495
lhand -19.530234161867597 1.1453513900304007
lfingers 7.12501999999988
lthumb 6.696850828275663 30.652461652658012
rfemur -5.224925471020068 4.348921472671926 19.953895229457594
rtibia 23.39820893984779
rfoot -7.902494932229507 -4.058505216509592
rtoes 1.5709086782778943
lfemur -17.56023872798804 -1.232195532012481 -12.703640757024166
ltibia 40.37508869493273
lfoot -6.747913838054091 -0.5538508537547262
ltoes -16.976334257283483
352
root 0 0 0 -1.7716684253138189 -5.372542207713476 -7.3382987787469025
lowerback 10.113559432986325 2.4489084226345144 5.6904694569840935
upperback 0.07082599909495407 4.002288250026236 1.4811978120490634
thorax -5.516211543585611 1.8444626088845428 -2.214224781335223
lowerneck -14.909444447716986 -3.3438764183420924 -0.9985326938819383
upperneck 17.55910109579119 -4.581606142200094 1.3061059617532784
head 8.068605694074208 -2.1390417472789673 0.08661164478224304
rclavicle -1.4980292478749833E-16 -5.181461432798838E-17
rhumerus -19.128496541616556 -6.743513360662398 -66.84442375867273
rradius 62.274381435745795
rwrist -8.736362126038546
rhand -13.134324937490648 -10.489028209774569
rfingers 7.1250199999998545
rthumb 12.991642678230495 -39.69867477067855
lclavicle -8.442787736624411E-16 -3.81429843683675E-16
lhumerus -39.797052564008446 0.28061474847479 83.30046715862167
lradius 38.45298653513106
lwrist 2.627392080842376
lhand -19.271866454277486 0.36358185871589477
lfingers 7.125019999999876
lthumb 6.941150231534722 29.861727023620304
rfemur -4.588992853424539 3.946622941031703 18.63691066407307
rtibia 22.930461610937964
rfoot -6.766534218741139 -3.549430352556177
rtoes 1.8195207117742629
lfemur -16.745448882092642 -1.5510006256728883 -12.644564368874327
ltibia 38.45245318264299
lfoot -8.116462648904351 0.5001492941364969
ltoes -19.141561967531462
353
root 0 0 0 -1.7430069226258893 -5.368813136566066 -7.352394199016603
lowerback 10.102939260702048 2.4646581330922777 5.6777809993267185
upperback 0.05812536038188881 4.022911388295601 1.4609821624080477
thorax -5.524268601447135 1.852807159505399 -2.2306734562900505
lowerneck -14.800487063885548 -3.339648739225532 -0.9660818878642012
upperneck 17.434060333735008 -4.586560207818701 1.3348618513773332
head 8.017911202582438 -2.1385655409205646 0.0939391686250029
rclavicle -1.4989478562218252E-16 -4.686531165614493E-17
rhumerus -19.116007395437173 -6.717169613602974 -66.82725292980281
rradius 62.34186660194442
rwrist -8.75805704687667
rhand -13.124293602568288 -10.561165556078539
rfingers 7.1250199999998545
rthumb 13.002184984507304 -39.769512082195
lclavicle -8.61054118178538E-16 -3.9307560657527193E-16
lhumerus -40.06244555175602 0.3037635731783936 83.32611985115722
lradius 38.79470521974815
lwrist 2.50885182657756
lhand -18.997359226697586 -0.4726119943579903
lfingers 7.1250199999998705
lthumb 7.2010721389367305 29.014532924076875
rfemur -4.355619672500281 3.4370290607921166 17.19846733852179
rtibia 23.19765350147356
rfoot -5.24245452970141 -3.046952014241825
rtoes 2.297027113518485
lfemur -15.79269102574506 -1.811546072650615 -12.783825797697368
ltibia 36.80670613911138
lfoot -9.237518327272696 1.266690767976546
ltoes -20.67402597717881
354
root 0 0 0 -1.7242597144006369 -5.350242711395923 -7.335299752684317
lowerback 10.097313241838185 2.4657248724376313 5.641133784894937
upperback 0.04964931262256905 4.020576319173213 1.446325411599187
thorax -5.530042827708937 1.8510455094690137 -2.2252499283633806
lowerneck -14.725335539449118 -3.3348776710511787 -0.9461902408713685
upperneck 17.344030110721206 -4.5867890500496715 1.3545131732192386
head 7.983956982372847 -2.1367119677239845 0.09981961619246432
rclavicle -1.544452942048308E-16 -4.801971126712439E-17
rhumerus -19.190941176877764 -6.78669910653346 -66.90292179359723
rradius 62.118871904758976
rwrist -8.673403239502155
rhand -13.15216063628558 -10.362347423287181
rfingers 7.125019999999855
rthumb 12.975430219395202 -39.57446601045014
lclavicle -8.72611783602747E-16 -4.0287001205649345E-16
lhumerus -40.27313803652855 0.31952027441607544 83.34650707579566
lradius 39.072869787527196
lwrist 2.4149996217328304
lhand -18.77708116022204 -1.144790625581729
lfingers 7.125019999999866
lthumb 7.409783034215384 28.333870990723504
rfemur -4.627564222665621 2.9319629988344103 16.02297456898687
rtibia 24.313142543338
rfoot -3.658042069340362 -2.676410437498396
rtoes 2.919453347971376
lfemur -14.929767309530526 -1.9948581431541585 -13.01677637132717
ltibia 35.5967878586375
lfoot -10.016681586839615 1.730685141729209
ltoes -21.552055581322556
355
root 0 0 0 -1.7108532272165673 -5.326978358046606 -7.30655315009034
lowerback 10.093901020091392 2.461248601609321 5.597097632436424
upperback 0.04326874296173766 4.009915380496426 1.4344012554832315
thorax -5.53489559701162 1.8456943865140993 -2.2118403364671204
lowerneck -14.668010304286137 -3.3304296828036777 -0.9325729312255121
upperneck 17.273346982049844 -4.58553340127731 1.3696466753916523
head 7.958053979016658 -2.134687415647185 0.10486463716920363
rclavicle -1.608073925975936E-16 -5.274599071251559E-17
rhumerus -19.297980430724056 -6.895485708813249 -67.01551020567499
rradius 61.77774801516177
rwrist -8.547377513404063
rhand -13.196023395710398 -10.050848613055942
rfingers 7.125019999999857
rthumb 12.932863140326415 -39.26894504485672
lclavicle -8.794389564168157E-16 -4.0951542343918696E-16
lhumerus -40.40449797713296 0.32794859231804635 83.35920196235814
lradius 39.249462409485126
lwrist 2.3568445455006843
lhand -18.63891717871133 -1.5673227975013972
lfingers 7.1250199999998625
lthumb 7.540879773721872 27.906495597579006
rfemur -5.248854374151242 2.548662951716734 15.31078175132508
rtibia 25.77103942274506
rfoot -2.418241996522044 -2.505815319343447
rtoes 3.481733183726944
lfemur -14.176489083424679 -2.1288105179754213 -13.278109603775441
ltibia 34.67647347821878
lfoot -10.57598848761655 2.017777394873483
ltoes -22.042300493097613
356
root 0 0 0 -1.6989932003154578 -5.303957951046391 -7.277239802937112
lowerback 10.091035879800963 2.4562372812610977 5.554103791318602
upperback 0.03743797862687731 3.9986712290272544 1.4234183128831215
thorax -5.5397532918066705 1.8401797105481443 -2.1980413222225774
lowerneck -14.616731824965662 -3.3264757170901094 -0.9207359486452302
upperneck 17.20839094973435 -4.58441210784999 1.3836147038503137
head 7.934594843771024 -2.1329066499112557 0.10960436176954858
rclavicle -1.662738475295808E-16 -5.8234910373533E-17
rhumerus -19.392270258413333 -6.994485330761478 -67.11800302599448
rradius 61.466502174006564
rwrist -8.434137948843167
rhand -13.23660087671674 -9.764910517546815
rfingers 7.125019999999859
rthumb 12.89348400211347 -38.988339516477104
lclavicle -8.797854635863361E-16 -4.12435281332436E-16
lhumerus -40.46391248145957 0.3286182247625937 83.36513279844112
lradius 39.33628070134609
lwrist 2.3312749585960626
lhand -18.574630952443783 -1.7656654881811615
lfingers 7.125019999999862
lthumb 7.602299911747467 27.706076801206194
rfemur -5.835532269388962 2.3830012650631747 15.073780471364987
rtibia 26.677813544925446
rfoot -1.894345244117665 -2.5255599186759037
rtoes 3.7306913136510556
lfemur -13.443613903540637 -2.2517558647310785 -13.548732496375031
ltibia 33.81812702366029
lfoot -11.087773561202251 2.26438972401104
ltoes -22.440753759427803
357
root 0 0 0 -1.6875458846711786 -5.282666738594282 -7.251214139874578
lowerback 10.088151368520565 2.4516679261013032 5.515460772109126
upperback 0.0318692871526749 3.9883068038285763 1.413581080479277
thorax -5.544635896843919 1.8351821341904109 -2.185767820658782
lowerneck -14.57013491618887 -3.3229215954589693 -0.9096988599281951
upperneck 17.147210943394676 -4.583458699385272 1.396763846570599
head 7.913161176968883 -2.1312917071303215 0.11397060904587974
rclavicle -1.6955949523028371E-16 -6.248887210052876E-17
rhumerus -19.45511709739022 -7.061696830942269 -67.18871090454614
rradius 61.2528151066701
rwrist -8.357561768490843
rhand -13.264744941586208 -9.568248251662776
rfingers 7.12501999999986
rthumb 12.866259058209167 -38.7951370005984
lclavicle -8.744923601467036E-16 -4.1261970491026657E-16
lhumerus -40.47308828929922 0.32345306779505356 83.36637532623375
lradius 39.36187384341384
lwrist 2.3283414448505257
lhand -18.561232893666414 -1.8093565176239306
lfingers 7.125019999999861
lthumb 7.61558037274029 27.661854039445025
rfemur -6.1431240594208205 2.423742359108605 15.155353231057198
rtibia 26.611899141857418
rfoot -2.0938469109330327 -2.6656390001619967
rtoes 3.594192771302756
lfemur -12.634725737896886 -2.3924640046103285 -13.83287781760848
ltibia 32.8468597081615
lfoot -11.679245265092925 2.5601943504743376
ltoes -22.947364964952243
